<?xml version="1.0" encoding="UTF-8" standalone="no"?>
<!-- Created with Inkscape (http://www.inkscape.org/) -->

<svg
   version="1.1"
   id="svg10"
   width="74.892746cm"
   height="49.616604cm"
   viewBox="0 0 2830.5922 1875.2731"
   xml:space="preserve"
   sodipodi:docname="topsignnowebsite.svg"
   inkscape:version="1.2.2 (732a01da63, 2022-12-09)"
   inkscape:export-filename="topsignnowebsite.pdf"
   inkscape:export-xdpi="96"
   inkscape:export-ydpi="96"
   xmlns:inkscape="http://www.inkscape.org/namespaces/inkscape"
   xmlns:sodipodi="http://sodipodi.sourceforge.net/DTD/sodipodi-0.dtd"
   xmlns="http://www.w3.org/2000/svg"
   xmlns:svg="http://www.w3.org/2000/svg"><sodipodi:namedview
     id="namedview48"
     pagecolor="#ffffff"
     bordercolor="#000000"
     borderopacity="0.25"
     inkscape:showpageshadow="2"
     inkscape:pageopacity="0.0"
     inkscape:pagecheckerboard="0"
     inkscape:deskcolor="#d1d1d1"
     showgrid="false"
     inkscape:zoom="0.16484083"
     inkscape:cx="1753.2064"
     inkscape:cy="1352.8202"
     inkscape:window-width="1920"
     inkscape:window-height="1009"
     inkscape:window-x="-8"
     inkscape:window-y="-8"
     inkscape:window-maximized="1"
     inkscape:current-layer="svg10"
     inkscape:document-units="cm" /><defs
     id="defs14" /><g
     id="layer5"
     style="display:none"
     transform="translate(863.09457,2403.0524)"><rect
       style="display:inline;opacity:0.772;fill:#000000;stroke:none;stroke-width:153.15;stroke-opacity:0"
       id="rect1"
       width="4688.4902"
       height="3633.905"
       x="-1817.1134"
       y="-3096.9036" /></g><g
     id="layer4"
     style="fill:none;stroke:#ffffff;stroke-opacity:1"
     transform="matrix(0.62276861,0,0,0.62276861,935.48296,1603.9683)"><path
       id="path643"
       style="opacity:1;fill:none;fill-rule:evenodd;stroke:#ffde59;stroke-width:103.119"
       d="M 1112.585,-129.7093 A 1454.0344,1454.0344 0 0 1 3.4580489,384.0836 1454.0344,1454.0344 0 0 1 -1450.5762,-1069.9506 1454.0344,1454.0344 0 0 1 3.4580489,-2523.9851 1454.0344,1454.0344 0 0 1 1106.4563,-2017.3742" /><path
       id="path646"
       style="opacity:1;fill:none;fill-opacity:0.0588235;fill-rule:evenodd;stroke-width:84.6898;stroke-dasharray:none"
       d="M 970.82641,-263.1996 A 1272.2799,1272.2799 0 0 1 -7.6123401,195.8437 1272.2799,1272.2799 0 0 1 -1279.8922,-1076.4362 1272.2799,1272.2799 0 0 1 -7.6123401,-2348.716 1272.2799,1272.2799 0 0 1 978.40937,-1880.4617" /><path
       id="path649"
       style="display:inline;opacity:1;fill:none;fill-opacity:0.0588235;fill-rule:evenodd;stroke-width:83.3947;stroke-dasharray:none"
       d="M 853.34859,-373.7754 A 1111.2993,1111.2993 0 0 1 -7.6123401,34.863304 1111.2993,1111.2993 0 0 1 -1118.9118,-1076.4362 1111.2993,1111.2993 0 0 1 -7.6123401,-2187.7352 1111.2993,1111.2993 0 0 1 867.31444,-1761.629" /></g><g
     id="layer3"
     style="display:inline"
     transform="matrix(0.62276861,0,0,0.62276861,935.48296,1603.9683)"><g
       id="g16"
       style="display:inline"><g
         aria-label="charleston"
         transform="matrix(10.687884,0,0,11.466925,-2645.1718,-7311.9258)"
         id="text227"
         style="font-size:67.7762px;font-family:'Gill Sans Nova';-inkscape-font-specification:'Gill Sans Nova';letter-spacing:6.61903px;display:inline;fill:#ffde59;stroke-width:1.45234"><path
           d="m 195.79638,518.98163 q 4.20213,0 8.87868,2.10107 v 6.43873 q -4.2699,-2.8466 -8.47202,-2.8466 -4.2699,0 -6.77762,3.04993 -2.43994,2.98216 -2.43994,7.04873 0,3.99879 2.43994,7.1165 2.43994,3.04993 7.92981,3.04993 3.52437,0 7.9976,-2.03329 v 5.96431 q -4.47323,1.76218 -8.87869,1.76218 -4.20212,0 -7.3876,-1.4233 -3.11771,-1.49108 -4.87989,-3.79547 -1.6944,-2.37217 -2.57549,-4.94766 -0.81332,-2.5755 -0.81332,-5.21877 0,-7.45538 4.13435,-11.86083 4.20212,-4.40546 10.84419,-4.40546 z"
           id="path516" /><path
           d="m 234.33806,518.98163 q 5.01544,0 7.59093,3.18548 2.64328,3.18549 2.64328,8.81091 v 19.04511 h -6.03209 v -18.90956 q 0,-7.1165 -5.89653,-7.1165 -3.99879,0 -7.65871,4.20213 v 21.82393 h -6.03208 v -46.22337 h 6.03208 v 19.79065 q 3.86325,-4.60878 9.35312,-4.60878 z"
           id="path518" /><path
           d="m 267.99981,518.98163 q 5.15099,0 8.06536,2.71105 2.98216,2.64327 2.98216,7.1165 v 15.31742 q 0,1.4233 1.15219,1.4233 1.08442,0 3.18548,-1.62663 v 4.33768 q -3.52436,2.37217 -6.30318,2.37217 -3.38881,0 -4.13435,-3.11771 -3.93102,3.11771 -8.20092,3.11771 -3.18548,0 -5.35432,-2.16884 -2.10106,-2.23661 -2.10106,-5.28654 0,-3.9988 3.1177,-6.16764 3.18548,-2.16884 12.60638,-5.35432 v -1.6944 q 0,-5.28655 -5.48988,-5.28655 -5.42209,0 -9.62422,5.01544 v -6.57429 q 3.52437,-4.13435 10.09866,-4.13435 z m -4.60878,23.11169 q 0,1.82995 1.21997,3.04993 1.21997,1.21997 3.1177,1.21997 2.64327,0 5.28655,-2.50772 v -8.87868 q -5.21877,1.6944 -7.45539,3.32103 -2.16883,1.62663 -2.16883,3.79547 z"
           id="path520" /><path
           d="m 309.65915,518.98163 q 3.65992,0 7.1165,3.45659 l -3.18548,5.28654 q -3.1177,-2.98215 -5.82875,-2.98215 -2.50772,0 -4.87989,2.5755 -2.30439,2.50771 -2.30439,6.50651 v 16.19851 h -6.03208 v -30.43151 h 6.03208 v 6.98095 q 4.60878,-7.59094 9.08201,-7.59094 z"
           id="path522" /><path
           d="m 327.73234,503.79976 h 6.03208 v 46.22337 h -6.03208 z"
           id="path524" /><path
           d="m 361.46184,518.98163 q 5.82875,0 9.55644,4.20213 3.72769,4.20212 3.72769,11.52195 v 0.60999 H 353.3287 q 0.33888,4.33767 2.91437,6.98095 2.64327,2.57549 6.91317,2.57549 5.96431,0 11.04753,-3.72769 v 5.89653 q -5.4221,3.59214 -11.86084,3.59214 -6.30319,0 -10.70864,-4.33768 -4.40545,-4.40545 -4.40545,-11.72528 0,-6.77762 3.86324,-11.18307 3.93102,-4.40546 10.36976,-4.40546 z m -7.99759,12.74193 h 15.31742 q -0.20333,-3.52436 -2.10106,-5.48987 -1.89774,-2.03329 -5.28655,-2.03329 -3.18548,0 -5.42209,2.16884 -2.23662,2.16884 -2.50772,5.35432 z"
           id="path526" /><path
           d="m 386.85488,526.91145 q 0,-3.45659 2.71105,-5.6932 2.77882,-2.23662 6.98095,-2.23662 4.67655,0 9.21756,2.50772 v 6.03208 q -5.35432,-3.25325 -8.81091,-3.25325 -1.96551,0 -2.91437,0.67776 -0.94887,0.67776 -0.94887,1.62663 0,1.21997 1.01664,2.30439 1.08442,1.01664 5.01544,3.25326 2.37217,1.35552 3.79547,2.43994 1.49107,1.01664 2.91438,3.04993 1.4233,2.03328 1.4233,4.33767 0,3.25326 -2.5755,5.96431 -2.5755,2.71105 -7.86204,2.71105 -4.541,0 -10.16643,-2.77883 v -6.50651 q 2.16884,1.6944 4.87989,2.8466 2.71104,1.15219 4.81211,1.15219 2.37216,0 3.52436,-0.81331 1.15219,-0.81331 1.15219,-2.03329 0,-1.4233 -1.15219,-2.43994 -1.1522,-1.08442 -6.09986,-3.99879 -3.38881,-2.10107 -5.15099,-4.13435 -1.76218,-2.10107 -1.76218,-5.01544 z"
           id="path528" /><path
           d="m 416.58562,524.40373 11.18307,-11.1153 h 0.13555 v 6.30319 h 9.62422 v 5.42209 h -9.62422 v 14.16523 q 0,2.77882 0.81332,4.40545 0.88109,1.55886 3.45658,1.55886 3.52437,0 6.91318,-2.16884 v 5.62542 q -3.45659,2.03329 -7.79427,2.03329 -4.67656,0 -7.04872,-2.64327 -2.37217,-2.71105 -2.37217,-8.81091 v -14.16523 h -5.28654 z"
           id="path530" /><path
           d="m 465.15812,524.40373 q -4.2699,0 -7.04873,2.8466 -2.77882,2.8466 -2.77882,7.59093 0,4.74434 2.8466,7.59094 2.91438,2.77882 7.31983,2.77882 4.47323,0 7.25205,-2.91437 2.77883,-2.98216 2.77883,-7.52316 0,-5.08322 -3.04993,-7.72649 -2.98216,-2.64327 -7.31983,-2.64327 z m 0.40666,-5.4221 q 6.98094,0 11.52195,4.40546 4.60878,4.40545 4.60878,11.45417 0,7.65871 -5.08321,11.72529 -5.01544,4.06657 -11.25085,4.06657 -7.52316,0 -11.86084,-4.74434 -4.33767,-4.81211 -4.33767,-10.84419 0,-6.91317 4.47322,-11.45418 4.54101,-4.60878 11.92862,-4.60878 z"
           id="path532" /><path
           d="m 510.47736,518.98163 q 4.87989,0 7.59093,3.32104 2.71105,3.32103 2.71105,9.35311 v 18.36735 h -6.03208 v -18.2318 q 0,-7.79426 -6.23541,-7.79426 -4.33768,0 -7.31983,4.2699 v 21.75616 h -6.03208 v -30.43151 h 6.03208 v 3.86324 q 1.89773,-2.16884 4.40545,-3.32103 2.5755,-1.1522 4.87989,-1.1522 z"
           id="path534" /></g></g></g><g
     id="layer1"
     style="display:inline"
     transform="matrix(0.62276861,0,0,0.62276861,935.48296,1603.9683)"><path
       id="rect331"
       style="fill:#ffde59;stroke-width:10.8656"
       d="m -685.6543,-925.25847 a 95.89378,138.94814 0 0 0 -2.4904,0.26204 h -3.3641 v 0.30601 a 95.89378,138.94814 0 0 0 -90.0454,138.36655 95.89378,138.94814 0 0 0 0.044,1.22339 h -0.1747 v 71.12762 a 95.89378,138.94814 0 0 0 -0.087,2.40291 95.89378,138.94814 0 0 0 0.087,2.35929 v 6.16029 h 0.3058 a 95.89378,138.94814 0 0 0 89.9143,129.89077 v 0.3933 h 4.4564 a 95.89378,138.94814 0 0 0 1.1359,0.1312 95.89378,138.94814 0 0 0 3.1458,-0.1312 h 3625.9763 v -0.2184 a 95.89378,138.94814 0 0 0 3.6263,0.3496 95.89378,138.94814 0 0 0 95.8999,-138.9347 95.89378,138.94814 0 0 0 0,-1.22339 h 0.1748 v -71.12736 a 95.89378,138.94814 0 0 0 0.088,-2.40317 95.89378,138.94814 0 0 0 -0.088,-6.3786 v -2.14098 h -0.1312 a 95.89378,138.94814 0 0 0 -95.6814,-130.4149 95.89378,138.94814 0 0 0 -3.8446,0.39301 v -0.17482 H -683.1199 a 95.89378,138.94814 0 0 0 -2.534,-0.21842 z m 1869.1956,8.25741 h 25.6024 v 67.98182 h 64.0061 v 20.70911 h -64.0061 v 135.5706 l 0.4368,15.72833 c 0.9143,8.70549 3.9943,15.60597 9.1751,20.70911 5.1805,5.10333 11.7372,7.68947 19.6604,7.68947 9.4473,0 19.6559,-2.85971 30.6268,-8.56323 l 8.6507,15.29149 c -14.3231,8.70567 -28.8006,13.06347 -43.4279,13.06347 -19.8085,0 -34.2857,-7.03717 -43.4281,-21.14599 -3.0474,-4.80314 -5.0275,-9.47812 -5.942,-13.98084 -0.914,-4.50295 -1.3542,-12.13047 -1.3542,-22.93732 v -141.42509 h -36.088 v -20.70911 h 36.088 z m 1581.5832,0.78628 h 25.4713 l 0.1312,96.8175 c 23.1608,-21.01332 46.4826,-31.50077 69.9481,-31.50077 9.7519,0 19.2126,1.77167 28.3547,5.37401 9.4472,3.60216 16.884,8.59432 22.3694,14.89822 5.7903,6.30413 9.7505,13.20442 11.8837,20.70934 2.1334,7.50469 3.2332,18.58244 3.2332,33.29186 v 147.71625 h -25.6026 v -146.79888 c 0,-9.00567 -0.484,-16.04262 -1.3981,-21.14599 -1.8284,-9.90624 -6.6689,-17.89458 -14.5924,-23.89852 -7.9234,-6.0037 -17.5599,-9.00007 -28.8354,-9.00007 -21.637,0 -43.4187,11.12136 -65.3606,33.33548 v 167.50798 h -25.6024 z m -841.9964,0.0876 h 25.4277 l 0.1748,96.73003 c 23.1608,-21.01332 46.4824,-31.50077 69.9479,-31.50077 9.7519,0 19.1689,1.77166 28.3113,5.374 9.447,3.60216 16.9276,8.59433 22.413,14.89822 5.7903,6.30413 9.7503,13.20442 11.8837,20.70934 2.1331,7.50469 3.1894,18.58244 3.1894,33.29186 v 147.71625 h -25.6024 v -146.79888 c 0,-9.00568 -0.4405,-16.04263 -1.3544,-21.14599 -1.8285,-9.90625 -6.7129,-17.89459 -14.6363,-23.89852 -7.9235,-6.00371 -17.5161,-9.00008 -28.7919,-9.00008 -21.6369,0 -43.4184,11.12136 -65.3603,33.33548 v 167.50798 h -25.6024 z m -874.2837,0.83012 h 27.8745 v 26.52 h -27.8745 z m -1172.94917,62.12732 c 27.1224,0 45.07582,12.75633 53.91349,38.27261 10.36151,-11.70746 22.55032,-20.83325 36.56876,-27.43734 14.3231,-6.90454 28.3600799,-10.35455 42.0736289,-10.35455 10.3612501,0 20.2621501,2.08862 29.7091901,6.29138 9.44725,4.20254 16.61976,9.74139 21.49561,16.64593 3.96182,5.70352 6.68999,12.01347 8.21379,18.91775 1.52358,6.60413 2.27182,16.95462 2.27182,31.06366 v 149.07073 h -25.60236 v -148.59002 l -0.87377,-19.39846 c -1.21914,-9.90629 -5.48742,-17.67068 -12.80133,-23.3742 -7.0092,-5.70374 -16.33766,-8.56346 -27.9180501,-8.56346 -24.9890489,0 -47.6948189,11.71216 -68.1129089,35.12707 v 164.79906 h -25.6024 v -147.71625 l -0.87372,-19.79173 c -1.52381,-10.20648 -5.79209,-18.33147 -12.80133,-24.33541 -6.70432,-6.0037 -15.24089,-9.00011 -25.6024,-9.00011 -21.63697,0 -44.65079,11.57528 -69.03048,34.68996 v 166.15354 h -25.6024 v -214.34385 h 25.6024 v 25.64627 c 24.68458,-22.51431 49.67852,-33.77259 74.97246,-33.77259 z m 391.72568,0 c 27.12236,0 45.11984,12.75633 53.95732,38.27261 10.36148,-11.70746 22.55032,-20.83325 36.56876,-27.43734 14.32311,-6.90454 28.31647,-10.35455 42.02999,-10.35455 10.36128,0 20.3058,2.08862 29.75283,6.29138 9.44722,4.20254 16.57612,9.74139 21.45197,16.64593 3.96163,5.70352 6.73363,12.01347 8.25744,18.91775 1.52358,6.60413 2.27181,16.95462 2.27181,31.06366 v 149.07072 h -25.6024 v -148.59001 l -0.91759,-19.39846 c -1.21888,-9.90629 -5.48721,-17.67068 -12.80107,-23.3742 -7.0092,-5.70374 -16.29406,-8.56346 -27.87425,-8.56346 -24.98924,0 -47.69501,11.71216 -68.1131,35.12707 v 164.79906 h -25.6024 v -147.71625 l -0.91738,-19.79173 c -1.5238,-10.20648 -5.79209,-18.33147 -12.80129,-24.33541 -6.70435,-6.0037 -15.24115,-9.00011 -25.6024,-9.00011 -21.637,0 -44.65082,11.57528 -69.03051,34.68996 v 166.15354 h -25.6024 v -214.34385 h 25.6024 v 25.64627 c 24.68458,-22.51431 49.67833,-33.77259 74.97227,-33.77259 z m -875.37571,0.48072 c 13.7135,0 25.4623,1.95193 35.2142,5.8545 10.0566,3.60212 20.7056,10.04876 31.98129,19.35463 l -13.71869,15.29149 c -8.8377,-7.50469 -17.3743,-12.72641 -25.6024,-15.72837 -7.9234,-3.00197 -17.0325,-4.54386 -27.3937,-4.54386 -23.1608,0 -42.6982,9.30632 -58.5449,27.91805 -15.542,18.31158 -23.2869,41.14509 -23.2869,68.46254 0,25.51604 6.9967,46.85151 21.0151,63.96226 14.3229,16.81059 32.4523,25.20938 54.3942,25.20938 21.9417,0 42.6673,-8.57909 62.1709,-25.68988 l 12.32086,15.33511 c -12.49466,11.40722 -24.37566,19.48884 -35.65116,24.29175 -10.9711,4.80318 -24.0401,7.20898 -39.2775,7.20898 -29.2557,0 -53.1934,-10.21384 -71.783,-30.62678 -18.5896,-20.41313 -27.8742,-46.83336 -27.8742,-79.25394 0,-33.62138 10.0329,-61.53988 30.146,-83.75399 20.1134,-22.21412 45.4152,-33.29187 75.8899,-33.29187 z m 213.47005,0 c 29.8651,0 53.62695,10.21384 71.30232,30.62678 17.67537,20.4129 26.51999,48.01426 26.51999,82.8364 0,34.52194 -8.84462,62.12326 -26.51999,82.83662 -17.67537,20.71313 -41.43722,31.06366 -71.30232,31.06366 -29.86511,0 -53.62695,-10.17023 -71.30232,-30.58317 -17.37048,-20.71313 -26.03927,-48.49498 -26.03927,-83.31711 0,-34.52195 8.66879,-61.98661 26.03927,-82.39952 17.67537,-20.71313 41.43721,-31.06366 71.30232,-31.06366 z m 1293.66522,0.43688 c 20.72276,0 37.00429,6.17303 48.88934,18.48087 5.79032,6.00371 9.75057,12.90422 11.88373,20.70911 2.13313,7.50469 3.23302,18.30909 3.23302,32.4181 v 149.94449 h -25.6024 v -147.71626 c 0,-35.12236 -14.34502,-52.69037 -42.99119,-52.69037 -21.94167,0 -44.64744,12.02911 -68.11291,36.04444 v 164.36218 h -25.6024 v -214.34385 h 25.6024 v 27.00048 c 22.85611,-22.81426 47.10181,-34.2092 72.70041,-34.2092 z m 892.98283,1.35422 c 13.7138,0 25.4626,1.95219 35.2143,5.8545 10.0568,3.60238 20.7494,10.04898 32.0249,19.35489 l -13.7187,15.29145 c -8.8377,-7.50469 -17.3743,-12.72659 -25.6024,-15.72833 -7.9234,-3.00197 -17.0761,-4.50029 -27.4373,-4.50029 -23.1608,0 -42.6544,9.30632 -58.5013,27.91809 -15.542,18.31154 -23.3303,41.10145 -23.3303,68.41889 0,25.51541 6.9964,46.85129 21.0149,63.9623 14.3231,16.81055 32.4526,25.20912 54.3942,25.20912 21.9417,0 42.6673,-8.57954 62.1711,-25.68961 l 12.3643,15.33506 c -12.4947,11.40726 -24.3755,19.48865 -35.6512,24.29179 -10.9708,4.80292 -24.084,7.20898 -39.3211,7.20898 -29.2558,0 -53.1934,-10.21474 -71.783,-30.62678 -18.5894,-20.41317 -27.8743,-46.83407 -27.8743,-79.25398 0,-33.62134 10.0768,-61.54055 30.1899,-83.75399 20.1132,-22.21411 45.3723,-33.29209 75.846,-33.29209 z m 722.2857,0 v 22.06359 c -8.2281,0 -15.5764,0.90774 -21.9763,2.70892 -6.0948,1.50098 -13.3995,4.49735 -21.9323,9.00007 -8.2283,4.20276 -14.7848,8.83387 -19.6606,13.93724 -4.5712,5.1031 -8.6637,11.86693 -12.3206,20.27223 v 154.00762 h -25.6024 v -214.34382 h 25.6024 v 34.20946 c 15.8466,-27.91786 41.1486,-41.85532 75.8898,-41.85532 z m 119.7546,0 c 13.7135,0 25.4623,1.95219 35.2143,5.8545 10.0565,3.60238 20.7055,10.04898 31.9812,19.35489 l -13.7187,15.29145 c -8.8376,-7.50469 -17.3745,-12.72659 -25.6024,-15.72833 -7.9234,-3.00197 -17.0761,-4.50029 -27.4375,-4.50029 -23.1606,0 -42.6544,9.30632 -58.5011,27.91809 -15.5419,18.31154 -23.2869,41.10145 -23.2869,68.41889 0,25.51451 6.9967,46.85129 21.0151,63.9623 14.3229,16.81055 32.4523,25.20912 54.3942,25.20912 21.9417,0 42.6673,-8.58045 62.171,-25.68961 l 12.3208,15.33506 c -12.4947,11.40726 -24.3772,19.48865 -35.6512,24.29179 -10.9711,4.80292 -24.084,7.20898 -39.3213,7.20898 -29.2555,0 -53.1496,-10.21565 -71.7392,-30.62678 -18.5894,-20.41317 -27.8742,-46.83497 -27.8742,-79.25398 0,-33.62134 10.0329,-61.54145 30.1461,-83.75399 20.1134,-22.21411 45.4151,-33.29209 75.8898,-33.29209 z m -1168.4492,1.35448 23.0246,0.21842 -89.6958,256.41742 c -1.6148,4.5618 -5.2429,14.3303 -5.2429,14.3303 -21.5014,-0.023 -0.2226,-0.1451 -21.3207,-0.1748 0,0 8.3371,-22.2595 11.2283,-30.3646 2.8915,-7.8051 4.3253,-13.20708 4.3253,-16.20905 l -0.7865,-3.58268 -72.8751,-220.28558 h 21.9761 l 60.7294,187.38698 2.7962,11.709 2.7524,-11.709 z m -907.13864,4.50002 h 25.6024 v 143.17262 l 0.91759,20.27222 c 1.21892,10.80685 5.79521,19.52264 13.71867,26.12673 7.92345,6.60435 17.95635,9.91767 30.14629,9.91767 10.36124,0 20.74602,-2.72279 31.10727,-8.12631 10.66617,-5.40333 20.39102,-13.07468 29.22869,-22.98096 v -168.38198 h 25.16552 v 214.34385 h -25.16552 v -22.98092 c -19.8085,19.21211 -41.59021,28.83542 -65.36034,28.83542 -23.77014,0 -41.41574,-7.808 -52.99612,-23.4178 -4.57119,-5.70375 -7.78342,-12.46735 -9.61189,-20.27223 -1.8285,-7.80488 -2.75256,-18.92651 -2.75256,-33.3357 z m 490.94624,0 h 25.6024 v 214.34385 h -25.6024 z m 1121.1329,1.79136 h 25.6024 v 143.17258 l 0.9176,20.27223 c 1.2189,10.80688 5.7516,19.52263 13.6748,26.12676 7.9234,6.60431 18.0002,9.91767 30.1899,9.91767 10.3615,0 20.7024,-2.72302 31.0639,-8.12635 10.6648,-5.40355 20.4346,-13.03103 29.2723,-22.93731 v -168.42559 h 25.1219 v 214.34381 h -25.1219 v -22.98092 c -19.8085,19.21215 -41.5902,28.83546 -65.3606,28.83546 -23.7701,0 -41.4593,-7.80804 -53.0397,-23.41784 -4.5712,-5.70371 -7.7834,-12.46731 -9.6119,-20.27223 -1.8285,-7.80511 -2.7087,-18.92647 -2.7087,-33.3357 z m -2565.17965,10.35455 c -21.94166,0 -39.45507,8.57887 -52.55926,25.68984 -13.10397,16.8106 -19.66043,39.46381 -19.66043,67.98183 0,28.51823 6.55646,51.30791 19.66043,68.41893 13.10419,17.11074 30.6176,25.68961 52.55926,25.68961 22.24655,0 39.93578,-8.39857 53.03975,-25.20912 13.1042,-17.11101 19.66065,-40.08122 19.66065,-68.89942 0,-28.81821 -6.55645,-51.65172 -19.66065,-68.46232 -13.10397,-16.81078 -30.7932,-25.20935 -53.03975,-25.20935 z" /></g></svg>
