<?xml version="1.0" encoding="UTF-8" standalone="no"?>
<!-- Created with Inkscape (http://www.inkscape.org/) -->

<svg
   version="1.1"
   id="svg10"
   width="1048.9481"
   height="721.96515"
   viewBox="0 0 1048.9481 721.96514"
   sodipodi:docname="ccc-dsauthor.svg"
   xml:space="preserve"
   inkscape:version="1.2.2 (732a01da63, 2022-12-09)"
   inkscape:export-filename="logoredraw.svg"
   inkscape:export-xdpi="366.57202"
   inkscape:export-ydpi="366.57202"
   xmlns:inkscape="http://www.inkscape.org/namespaces/inkscape"
   xmlns:sodipodi="http://sodipodi.sourceforge.net/DTD/sodipodi-0.dtd"
   xmlns="http://www.w3.org/2000/svg"
   xmlns:svg="http://www.w3.org/2000/svg"><defs
     id="defs14"><filter
       style="color-interpolation-filters:sRGB"
       inkscape:label="Drop Shadow"
       id="filter302"
       x="-0.049127099"
       y="-0.53287253"
       width="1.0982542"
       height="2.0657451"><feFlood
         result="flood"
         in="SourceGraphic"
         flood-opacity="0.498039"
         flood-color="rgb(0,0,0)"
         id="feFlood301" /><feGaussianBlur
         result="blur"
         in="SourceGraphic"
         stdDeviation="3.500000"
         id="feGaussianBlur301" /><feOffset
         result="offset"
         in="blur"
         dx="0.000000"
         dy="0.000000"
         id="feOffset301" /><feComposite
         result="comp1"
         operator="in"
         in="flood"
         in2="offset"
         id="feComposite301" /><feComposite
         result="comp2"
         operator="atop"
         in="comp1"
         in2="comp1"
         id="feComposite302" /></filter><filter
       style="color-interpolation-filters:sRGB"
       inkscape:label="Drop Shadow"
       id="filter304"
       x="-0.02470868"
       y="-0.17935933"
       width="1.0494174"
       height="1.3587187"><feFlood
         result="flood"
         in="SourceGraphic"
         flood-opacity="0.498039"
         flood-color="rgb(0,0,0)"
         id="feFlood302" /><feGaussianBlur
         result="blur"
         in="SourceGraphic"
         stdDeviation="3.500000"
         id="feGaussianBlur302" /><feOffset
         result="offset"
         in="blur"
         dx="0.000000"
         dy="0.000000"
         id="feOffset302" /><feComposite
         result="comp1"
         operator="in"
         in="flood"
         in2="offset"
         id="feComposite303" /><feComposite
         result="comp2"
         operator="atop"
         in="comp1"
         in2="comp1"
         id="feComposite304" /></filter><filter
       style="color-interpolation-filters:sRGB"
       inkscape:label="Drop Shadow"
       id="filter306"
       x="-0.11559602"
       y="-0.10330244"
       width="1.2267268"
       height="1.2066049"><feFlood
         result="flood"
         in="SourceGraphic"
         flood-opacity="0.498039"
         flood-color="rgb(0,0,0)"
         id="feFlood304" /><feGaussianBlur
         result="blur"
         in="SourceGraphic"
         stdDeviation="3.500000"
         id="feGaussianBlur304" /><feOffset
         result="offset"
         in="blur"
         dx="0.000000"
         dy="0.000000"
         id="feOffset304" /><feComposite
         result="comp1"
         operator="in"
         in="flood"
         in2="offset"
         id="feComposite305" /><feComposite
         result="comp2"
         operator="atop"
         in="comp1"
         in2="comp1"
         id="feComposite306" /></filter><filter
       style="color-interpolation-filters:sRGB"
       inkscape:label="Drop Shadow"
       id="filter308"
       x="-0.10195602"
       y="-0.090486157"
       width="1.1996932"
       height="1.1809723"><feFlood
         result="flood"
         in="SourceGraphic"
         flood-opacity="0.498039"
         flood-color="rgb(0,0,0)"
         id="feFlood306" /><feGaussianBlur
         result="blur"
         in="SourceGraphic"
         stdDeviation="3.500000"
         id="feGaussianBlur306" /><feOffset
         result="offset"
         in="blur"
         dx="0.000000"
         dy="0.000000"
         id="feOffset306" /><feComposite
         result="comp1"
         operator="in"
         in="flood"
         in2="offset"
         id="feComposite307" /><feComposite
         result="comp2"
         operator="atop"
         in="comp1"
         in2="comp1"
         id="feComposite308" /></filter><filter
       style="color-interpolation-filters:sRGB"
       inkscape:label="Drop Shadow"
       id="filter310"
       x="-0.093424539"
       y="-0.08234405"
       width="1.1820775"
       height="1.1646881"><feFlood
         result="flood"
         in="SourceGraphic"
         flood-opacity="0.498039"
         flood-color="rgb(0,0,0)"
         id="feFlood308" /><feGaussianBlur
         result="blur"
         in="SourceGraphic"
         stdDeviation="3.500000"
         id="feGaussianBlur308" /><feOffset
         result="offset"
         in="blur"
         dx="0.000000"
         dy="0.000000"
         id="feOffset308" /><feComposite
         result="comp1"
         operator="in"
         in="flood"
         in2="offset"
         id="feComposite309" /><feComposite
         result="comp2"
         operator="atop"
         in="comp1"
         in2="comp1"
         id="feComposite310" /></filter></defs><sodipodi:namedview
     id="namedview12"
     pagecolor="#ffffff"
     bordercolor="#000000"
     borderopacity="0.25"
     inkscape:showpageshadow="2"
     inkscape:pageopacity="0.0"
     inkscape:pagecheckerboard="0"
     inkscape:deskcolor="#d1d1d1"
     showgrid="false"
     inkscape:zoom="1"
     inkscape:cx="388"
     inkscape:cy="370"
     inkscape:window-width="1920"
     inkscape:window-height="1009"
     inkscape:window-x="-8"
     inkscape:window-y="-8"
     inkscape:window-maximized="1"
     inkscape:current-layer="layer2" /><g
     inkscape:groupmode="layer"
     id="layer4"
     inkscape:label="circles"
     style="fill:none;stroke:#ffffff;stroke-opacity:1"
     transform="translate(103.58812,-250.81742)"><path
       id="path289"
       style="opacity:1;fill:none;fill-opacity:0.0588235;fill-rule:evenodd;stroke-width:3.78597;stroke-dasharray:none;filter:url(#filter308)"
       d="m 362.80147,602.59461 a 56.876019,56.876019 0 0 1 -43.74014,20.52108 56.876019,56.876019 0 0 1 -56.87602,-56.87602 56.876019,56.876019 0 0 1 56.87602,-56.87602 56.876019,56.876019 0 0 1 44.07913,20.93285"
       transform="matrix(4.7682102,0,0,4.7682102,-1266.3168,-2089.5322)" /><path
       id="path290"
       style="opacity:1;fill:none;fill-opacity:0.0588235;fill-rule:evenodd;stroke-width:3.72807;stroke-dasharray:none;filter:url(#filter306)"
       d="m 357.54974,597.65143 a 49.679541,49.679541 0 0 1 -38.48841,18.26779 49.679541,49.679541 0 0 1 -49.67955,-49.67955 49.679541,49.679541 0 0 1 49.67955,-49.67953 49.679541,49.679541 0 0 1 39.11274,19.04866"
       transform="matrix(4.7682102,0,0,4.7682102,-1266.3168,-2089.5322)" /><path
       id="path288"
       style="opacity:1;fill:none;fill-rule:evenodd;stroke:#ffde59;stroke-width:4.60984;filter:url(#filter310)"
       d="m 369.13865,608.56216 a 65.001174,65.001174 0 0 1 -49.58243,22.96861 65.001174,65.001174 0 0 1 -65.00117,-65.00117 65.001174,65.001174 0 0 1 65.00117,-65.00118 65.001174,65.001174 0 0 1 49.30845,22.64754"
       inkscape:export-filename="..\..\..\Hugo\CCC\assets\img\ccc-svg.svg"
       inkscape:export-xdpi="350"
       inkscape:export-ydpi="350"
       transform="matrix(4.7682102,0,0,4.7682102,-1266.3168,-2089.5322)" /><path
       id="path643"
       style="opacity:1;fill:none;fill-rule:evenodd;stroke:#ffde59;stroke-width:21.9805"
       d="M 493.81383,812.22001 A 309.93927,309.93927 0 0 1 257.39439,921.73917 309.93927,309.93927 0 0 1 -52.544841,611.79994 309.93927,309.93927 0 0 1 257.39439,301.86066 309.93927,309.93927 0 0 1 492.50743,409.84889"
       inkscape:export-filename="..\..\..\Hugo\CCC\assets\img\ccc-svg.svg"
       inkscape:export-xdpi="350"
       inkscape:export-ydpi="350" /><path
       id="path646"
       style="opacity:1;fill:none;fill-opacity:0.0588235;fill-rule:evenodd;stroke-width:18.0523;stroke-dasharray:none"
       d="M 463.59682,783.76547 A 271.19682,271.19682 0 0 1 255.03465,881.61429 271.19682,271.19682 0 0 1 -16.16218,610.41747 271.19682,271.19682 0 0 1 255.03465,339.22067 271.19682,271.19682 0 0 1 465.21319,439.0329" /><path
       id="path649"
       style="opacity:1;fill:none;fill-opacity:0.0588235;fill-rule:evenodd;stroke-width:17.7762;stroke-dasharray:none"
       d="M 438.55547,760.19536 A 236.88248,236.88248 0 0 1 255.03465,847.30002 236.88248,236.88248 0 0 1 18.152105,610.41747 236.88248,236.88248 0 0 1 255.03465,373.53506 236.88248,236.88248 0 0 1 441.53241,464.36304" /></g><g
     inkscape:groupmode="layer"
     id="layer2"
     inkscape:label="bck"
     style="display:inline;fill:#000000"
     transform="translate(103.58812,-250.81742)" /><g
     inkscape:groupmode="layer"
     id="layer3"
     inkscape:label="Logo"
     style="display:inline"
     transform="translate(103.58812,-250.81742)"><g
       inkscape:groupmode="layer"
       inkscape:label="charleston"
       id="g16"
       style="display:inline"><g
         aria-label="charleston"
         transform="matrix(2.2782095,0,0,2.4442685,-307.18263,-718.72785)"
         id="g300"
         style="font-size:67.7762px;font-family:'Gill Sans Nova';-inkscape-font-specification:'Gill Sans Nova';letter-spacing:6.61903px;display:inline;fill:#ffde59;stroke-width:1.45234;filter:url(#filter304)"><path
           d="m 195.79638,518.98163 q 4.20213,0 8.87868,2.10107 v 6.43873 q -4.2699,-2.8466 -8.47202,-2.8466 -4.2699,0 -6.77762,3.04993 -2.43994,2.98216 -2.43994,7.04873 0,3.99879 2.43994,7.1165 2.43994,3.04993 7.92981,3.04993 3.52437,0 7.9976,-2.03329 v 5.96431 q -4.47323,1.76218 -8.87869,1.76218 -4.20212,0 -7.3876,-1.4233 -3.11771,-1.49108 -4.87989,-3.79547 -1.6944,-2.37217 -2.57549,-4.94766 -0.81332,-2.5755 -0.81332,-5.21877 0,-7.45538 4.13435,-11.86083 4.20212,-4.40546 10.84419,-4.40546 z"
           id="path291" /><path
           d="m 234.33806,518.98163 q 5.01544,0 7.59093,3.18548 2.64328,3.18549 2.64328,8.81091 v 19.04511 h -6.03209 v -18.90956 q 0,-7.1165 -5.89653,-7.1165 -3.99879,0 -7.65871,4.20213 v 21.82393 h -6.03208 v -46.22337 h 6.03208 v 19.79065 q 3.86325,-4.60878 9.35312,-4.60878 z"
           id="path292" /><path
           d="m 267.99981,518.98163 q 5.15099,0 8.06536,2.71105 2.98216,2.64327 2.98216,7.1165 v 15.31742 q 0,1.4233 1.15219,1.4233 1.08442,0 3.18548,-1.62663 v 4.33768 q -3.52436,2.37217 -6.30318,2.37217 -3.38881,0 -4.13435,-3.11771 -3.93102,3.11771 -8.20092,3.11771 -3.18548,0 -5.35432,-2.16884 -2.10106,-2.23661 -2.10106,-5.28654 0,-3.9988 3.1177,-6.16764 3.18548,-2.16884 12.60638,-5.35432 v -1.6944 q 0,-5.28655 -5.48988,-5.28655 -5.42209,0 -9.62422,5.01544 v -6.57429 q 3.52437,-4.13435 10.09866,-4.13435 z m -4.60878,23.11169 q 0,1.82995 1.21997,3.04993 1.21997,1.21997 3.1177,1.21997 2.64327,0 5.28655,-2.50772 v -8.87868 q -5.21877,1.6944 -7.45539,3.32103 -2.16883,1.62663 -2.16883,3.79547 z"
           id="path293" /><path
           d="m 309.65915,518.98163 q 3.65992,0 7.1165,3.45659 l -3.18548,5.28654 q -3.1177,-2.98215 -5.82875,-2.98215 -2.50772,0 -4.87989,2.5755 -2.30439,2.50771 -2.30439,6.50651 v 16.19851 h -6.03208 v -30.43151 h 6.03208 v 6.98095 q 4.60878,-7.59094 9.08201,-7.59094 z"
           id="path294" /><path
           d="m 327.73234,503.79976 h 6.03208 v 46.22337 h -6.03208 z"
           id="path295" /><path
           d="m 361.46184,518.98163 q 5.82875,0 9.55644,4.20213 3.72769,4.20212 3.72769,11.52195 v 0.60999 H 353.3287 q 0.33888,4.33767 2.91437,6.98095 2.64327,2.57549 6.91317,2.57549 5.96431,0 11.04753,-3.72769 v 5.89653 q -5.4221,3.59214 -11.86084,3.59214 -6.30319,0 -10.70864,-4.33768 -4.40545,-4.40545 -4.40545,-11.72528 0,-6.77762 3.86324,-11.18307 3.93102,-4.40546 10.36976,-4.40546 z m -7.99759,12.74193 h 15.31742 q -0.20333,-3.52436 -2.10106,-5.48987 -1.89774,-2.03329 -5.28655,-2.03329 -3.18548,0 -5.42209,2.16884 -2.23662,2.16884 -2.50772,5.35432 z"
           id="path296" /><path
           d="m 386.85488,526.91145 q 0,-3.45659 2.71105,-5.6932 2.77882,-2.23662 6.98095,-2.23662 4.67655,0 9.21756,2.50772 v 6.03208 q -5.35432,-3.25325 -8.81091,-3.25325 -1.96551,0 -2.91437,0.67776 -0.94887,0.67776 -0.94887,1.62663 0,1.21997 1.01664,2.30439 1.08442,1.01664 5.01544,3.25326 2.37217,1.35552 3.79547,2.43994 1.49107,1.01664 2.91438,3.04993 1.4233,2.03328 1.4233,4.33767 0,3.25326 -2.5755,5.96431 -2.5755,2.71105 -7.86204,2.71105 -4.541,0 -10.16643,-2.77883 v -6.50651 q 2.16884,1.6944 4.87989,2.8466 2.71104,1.15219 4.81211,1.15219 2.37216,0 3.52436,-0.81331 1.15219,-0.81331 1.15219,-2.03329 0,-1.4233 -1.15219,-2.43994 -1.1522,-1.08442 -6.09986,-3.99879 -3.38881,-2.10107 -5.15099,-4.13435 -1.76218,-2.10107 -1.76218,-5.01544 z"
           id="path297" /><path
           d="m 416.58562,524.40373 11.18307,-11.1153 h 0.13555 v 6.30319 h 9.62422 v 5.42209 h -9.62422 v 14.16523 q 0,2.77882 0.81332,4.40545 0.88109,1.55886 3.45658,1.55886 3.52437,0 6.91318,-2.16884 v 5.62542 q -3.45659,2.03329 -7.79427,2.03329 -4.67656,0 -7.04872,-2.64327 -2.37217,-2.71105 -2.37217,-8.81091 v -14.16523 h -5.28654 z"
           id="path298" /><path
           d="m 465.15812,524.40373 q -4.2699,0 -7.04873,2.8466 -2.77882,2.8466 -2.77882,7.59093 0,4.74434 2.8466,7.59094 2.91438,2.77882 7.31983,2.77882 4.47323,0 7.25205,-2.91437 2.77883,-2.98216 2.77883,-7.52316 0,-5.08322 -3.04993,-7.72649 -2.98216,-2.64327 -7.31983,-2.64327 z m 0.40666,-5.4221 q 6.98094,0 11.52195,4.40546 4.60878,4.40545 4.60878,11.45417 0,7.65871 -5.08321,11.72529 -5.01544,4.06657 -11.25085,4.06657 -7.52316,0 -11.86084,-4.74434 -4.33767,-4.81211 -4.33767,-10.84419 0,-6.91317 4.47322,-11.45418 4.54101,-4.60878 11.92862,-4.60878 z"
           id="path299" /><path
           d="m 510.47736,518.98163 q 4.87989,0 7.59093,3.32104 2.71105,3.32103 2.71105,9.35311 v 18.36735 h -6.03208 v -18.2318 q 0,-7.79426 -6.23541,-7.79426 -4.33768,0 -7.31983,4.2699 v 21.75616 h -6.03208 v -30.43151 h 6.03208 v 3.86324 q 1.89773,-2.16884 4.40545,-3.32103 2.5755,-1.1522 4.87989,-1.1522 z"
           id="path300" /></g><g
         aria-label="charleston"
         transform="matrix(2.2782095,0,0,2.4442685,-307.18263,-718.72785)"
         id="text227"
         style="font-size:67.7762px;font-family:'Gill Sans Nova';-inkscape-font-specification:'Gill Sans Nova';letter-spacing:6.61903px;display:inline;fill:#ffde59;stroke-width:1.45234"><path
           d="m 195.79638,518.98163 q 4.20213,0 8.87868,2.10107 v 6.43873 q -4.2699,-2.8466 -8.47202,-2.8466 -4.2699,0 -6.77762,3.04993 -2.43994,2.98216 -2.43994,7.04873 0,3.99879 2.43994,7.1165 2.43994,3.04993 7.92981,3.04993 3.52437,0 7.9976,-2.03329 v 5.96431 q -4.47323,1.76218 -8.87869,1.76218 -4.20212,0 -7.3876,-1.4233 -3.11771,-1.49108 -4.87989,-3.79547 -1.6944,-2.37217 -2.57549,-4.94766 -0.81332,-2.5755 -0.81332,-5.21877 0,-7.45538 4.13435,-11.86083 4.20212,-4.40546 10.84419,-4.40546 z"
           id="path516" /><path
           d="m 234.33806,518.98163 q 5.01544,0 7.59093,3.18548 2.64328,3.18549 2.64328,8.81091 v 19.04511 h -6.03209 v -18.90956 q 0,-7.1165 -5.89653,-7.1165 -3.99879,0 -7.65871,4.20213 v 21.82393 h -6.03208 v -46.22337 h 6.03208 v 19.79065 q 3.86325,-4.60878 9.35312,-4.60878 z"
           id="path518" /><path
           d="m 267.99981,518.98163 q 5.15099,0 8.06536,2.71105 2.98216,2.64327 2.98216,7.1165 v 15.31742 q 0,1.4233 1.15219,1.4233 1.08442,0 3.18548,-1.62663 v 4.33768 q -3.52436,2.37217 -6.30318,2.37217 -3.38881,0 -4.13435,-3.11771 -3.93102,3.11771 -8.20092,3.11771 -3.18548,0 -5.35432,-2.16884 -2.10106,-2.23661 -2.10106,-5.28654 0,-3.9988 3.1177,-6.16764 3.18548,-2.16884 12.60638,-5.35432 v -1.6944 q 0,-5.28655 -5.48988,-5.28655 -5.42209,0 -9.62422,5.01544 v -6.57429 q 3.52437,-4.13435 10.09866,-4.13435 z m -4.60878,23.11169 q 0,1.82995 1.21997,3.04993 1.21997,1.21997 3.1177,1.21997 2.64327,0 5.28655,-2.50772 v -8.87868 q -5.21877,1.6944 -7.45539,3.32103 -2.16883,1.62663 -2.16883,3.79547 z"
           id="path520" /><path
           d="m 309.65915,518.98163 q 3.65992,0 7.1165,3.45659 l -3.18548,5.28654 q -3.1177,-2.98215 -5.82875,-2.98215 -2.50772,0 -4.87989,2.5755 -2.30439,2.50771 -2.30439,6.50651 v 16.19851 h -6.03208 v -30.43151 h 6.03208 v 6.98095 q 4.60878,-7.59094 9.08201,-7.59094 z"
           id="path522" /><path
           d="m 327.73234,503.79976 h 6.03208 v 46.22337 h -6.03208 z"
           id="path524" /><path
           d="m 361.46184,518.98163 q 5.82875,0 9.55644,4.20213 3.72769,4.20212 3.72769,11.52195 v 0.60999 H 353.3287 q 0.33888,4.33767 2.91437,6.98095 2.64327,2.57549 6.91317,2.57549 5.96431,0 11.04753,-3.72769 v 5.89653 q -5.4221,3.59214 -11.86084,3.59214 -6.30319,0 -10.70864,-4.33768 -4.40545,-4.40545 -4.40545,-11.72528 0,-6.77762 3.86324,-11.18307 3.93102,-4.40546 10.36976,-4.40546 z m -7.99759,12.74193 h 15.31742 q -0.20333,-3.52436 -2.10106,-5.48987 -1.89774,-2.03329 -5.28655,-2.03329 -3.18548,0 -5.42209,2.16884 -2.23662,2.16884 -2.50772,5.35432 z"
           id="path526" /><path
           d="m 386.85488,526.91145 q 0,-3.45659 2.71105,-5.6932 2.77882,-2.23662 6.98095,-2.23662 4.67655,0 9.21756,2.50772 v 6.03208 q -5.35432,-3.25325 -8.81091,-3.25325 -1.96551,0 -2.91437,0.67776 -0.94887,0.67776 -0.94887,1.62663 0,1.21997 1.01664,2.30439 1.08442,1.01664 5.01544,3.25326 2.37217,1.35552 3.79547,2.43994 1.49107,1.01664 2.91438,3.04993 1.4233,2.03328 1.4233,4.33767 0,3.25326 -2.5755,5.96431 -2.5755,2.71105 -7.86204,2.71105 -4.541,0 -10.16643,-2.77883 v -6.50651 q 2.16884,1.6944 4.87989,2.8466 2.71104,1.15219 4.81211,1.15219 2.37216,0 3.52436,-0.81331 1.15219,-0.81331 1.15219,-2.03329 0,-1.4233 -1.15219,-2.43994 -1.1522,-1.08442 -6.09986,-3.99879 -3.38881,-2.10107 -5.15099,-4.13435 -1.76218,-2.10107 -1.76218,-5.01544 z"
           id="path528" /><path
           d="m 416.58562,524.40373 11.18307,-11.1153 h 0.13555 v 6.30319 h 9.62422 v 5.42209 h -9.62422 v 14.16523 q 0,2.77882 0.81332,4.40545 0.88109,1.55886 3.45658,1.55886 3.52437,0 6.91318,-2.16884 v 5.62542 q -3.45659,2.03329 -7.79427,2.03329 -4.67656,0 -7.04872,-2.64327 -2.37217,-2.71105 -2.37217,-8.81091 v -14.16523 h -5.28654 z"
           id="path530" /><path
           d="m 465.15812,524.40373 q -4.2699,0 -7.04873,2.8466 -2.77882,2.8466 -2.77882,7.59093 0,4.74434 2.8466,7.59094 2.91438,2.77882 7.31983,2.77882 4.47323,0 7.25205,-2.91437 2.77883,-2.98216 2.77883,-7.52316 0,-5.08322 -3.04993,-7.72649 -2.98216,-2.64327 -7.31983,-2.64327 z m 0.40666,-5.4221 q 6.98094,0 11.52195,4.40546 4.60878,4.40545 4.60878,11.45417 0,7.65871 -5.08321,11.72529 -5.01544,4.06657 -11.25085,4.06657 -7.52316,0 -11.86084,-4.74434 -4.33767,-4.81211 -4.33767,-10.84419 0,-6.91317 4.47322,-11.45418 4.54101,-4.60878 11.92862,-4.60878 z"
           id="path532" /><path
           d="m 510.47736,518.98163 q 4.87989,0 7.59093,3.32104 2.71105,3.32103 2.71105,9.35311 v 18.36735 h -6.03208 v -18.2318 q 0,-7.79426 -6.23541,-7.79426 -4.33768,0 -7.31983,4.2699 v 21.75616 h -6.03208 v -30.43151 h 6.03208 v 3.86324 q 1.89773,-2.16884 4.40545,-3.32103 2.5755,-1.1522 4.87989,-1.1522 z"
           id="path534" /></g></g></g><g
     inkscape:groupmode="layer"
     id="layer1"
     inkscape:label="edits"
     style="display:inline"
     transform="translate(103.58812,-250.81742)"><path
       id="path301"
       style="fill:#ffde59;stroke-width:0.485738;filter:url(#filter302)"
       d="m 288.75074,572.99813 a 4.286837,6.2115398 0 0 0 -0.11212,0.0106 h -0.14983 v 0.0145 a 4.286837,6.2115398 0 0 0 -4.02491,6.18623 4.286837,6.2115398 0 0 0 0.002,0.0532 h -0.008 v 3.18107 a 4.286837,6.2115398 0 0 0 -0.005,0.10633 4.286837,6.2115398 0 0 0 0.005,0.10633 v 0.27548 h 0.0126 a 4.286837,6.2115398 0 0 0 4.01911,5.80538 v 0.0194 h 0.19912 a 4.286837,6.2115398 0 0 0 0.0512,0.005 4.286837,6.2115398 0 0 0 0.14113,-0.005 H 450.9776 v -0.0106 a 4.286837,6.2115398 0 0 0 0.16143,0.0154 4.286837,6.2115398 0 0 0 4.28686,-6.21135 4.286837,6.2115398 0 0 0 -9.5e-4,-0.0532 h 0.008 v -3.18107 a 4.286837,6.2115398 0 0 0 0.005,-0.10632 4.286837,6.2115398 0 0 0 -0.005,-0.28612 v -0.0957 h -0.005 a 4.286837,6.2115398 0 0 0 -4.27719,-5.82956 4.286837,6.2115398 0 0 0 -0.17303,0.0165 v -0.006 H 288.86287 a 4.286837,6.2115398 0 0 0 -0.11213,-0.0106 z"
       transform="matrix(4.7682102,0,0,4.7682102,-1266.3168,-2089.5322)" /><path
       id="rect331"
       style="fill:#ffde59;stroke-width:2.3161"
       d="m 110.50738,642.64324 a 20.440539,29.617927 0 0 0 -0.5346,0.0506 h -0.71443 v 0.0691 a 20.440539,29.617927 0 0 0 -19.191628,29.49725 20.440539,29.617927 0 0 0 0.01086,0.25359 h -0.03814 v 15.16801 a 20.440539,29.617927 0 0 0 -0.02442,0.50702 20.440539,29.617927 0 0 0 0.02442,0.50698 v 1.31358 h 0.06012 a 20.440539,29.617927 0 0 0 19.163978,27.68124 v 0.0925 h 0.94945 a 20.440539,29.617927 0 0 0 0.24405,0.0246 20.440539,29.617927 0 0 0 0.67296,-0.0246 h 772.91046 v -0.0506 a 20.440539,29.617927 0 0 0 0.76971,0.0736 20.440539,29.617927 0 0 0 20.44065,-29.61702 20.440539,29.617927 0 0 0 -0.006,-0.2536 h 0.0381 v -15.16803 a 20.440539,29.617927 0 0 0 0.0244,-0.50697 20.440539,29.617927 0 0 0 -0.0244,-1.36427 v -0.45633 h -0.0246 a 20.440539,29.617927 0 0 0 -20.39455,-27.79654 20.440539,29.617927 0 0 0 -0.82504,0.0786 v -0.0285 H 111.04206 a 20.440539,29.617927 0 0 0 -0.53468,-0.0506 z" /><g
       aria-label="communi"
       transform="matrix(2.3776164,0,0,2.342075,-307.18263,-718.72785)"
       id="text245"
       style="font-size:40.9817px;font-family:Saxony-Serial-Light;-inkscape-font-specification:Saxony-Serial-Light;display:inline;stroke-width:0.878179"><path
         d="m 188.68323,590.16503 -1.22945,1.39338 q -1.18847,-1.02454 -2.29498,-1.43436 -1.06552,-0.40982 -2.4589,-0.40982 -3.11461,0 -5.24566,2.54087 -2.09007,2.49988 -2.09007,6.22922 0,3.48344 1.88516,5.8194 1.92614,2.29497 4.87683,2.29497 2.95068,0 5.57351,-2.33595 l 1.1065,1.39338 q -1.68025,1.5573 -3.19657,2.21301 -1.47534,0.6557 -3.52443,0.6557 -3.93424,0 -6.43412,-2.78675 -2.49989,-2.78676 -2.49989,-7.21278 0,-4.58995 2.7048,-7.6226 2.70479,-3.03264 6.80296,-3.03264 1.84417,0 3.15559,0.53276 1.35239,0.49178 2.86872,1.76221 z"
         id="path501" /><path
         d="m 193.06827,598.19745 q 0,-4.7129 2.33596,-7.49966 2.37694,-2.82773 6.39314,-2.82773 4.01621,0 6.39315,2.78675 2.37694,2.78676 2.37694,7.54064 0,4.71289 -2.37694,7.54063 -2.37694,2.82774 -6.39315,2.82774 -4.0162,0 -6.39314,-2.78676 -2.33596,-2.82774 -2.33596,-7.58161 z m 8.7291,-8.5242 q -2.95068,0 -4.71289,2.33596 -1.76221,2.29497 -1.76221,6.18824 0,3.89326 1.76221,6.22921 1.76221,2.33596 4.71289,2.33596 2.99167,0 4.75388,-2.29497 1.76221,-2.33596 1.76221,-6.2702 0,-3.93425 -1.76221,-6.22922 -1.76221,-2.29498 -4.75388,-2.29498 z"
         id="path503" /><path
         d="m 217.00159,608.07404 v -19.50729 h 2.29497 v 2.33595 q 3.31952,-3.07362 6.721,-3.07362 3.64737,0 4.83584,3.48344 1.39338,-1.59829 3.27854,-2.49988 1.92614,-0.94258 3.77031,-0.94258 1.39338,0 2.66381,0.57374 1.27044,0.57374 1.92614,1.51632 0.53277,0.77866 0.73768,1.72124 0.2049,0.90159 0.2049,2.82773 v 13.56495 h -2.29497 v -13.52397 l -0.082,-1.76221 q -0.16393,-1.35239 -1.14749,-2.13105 -0.94258,-0.77865 -2.49989,-0.77865 -3.3605,0 -6.10627,3.19657 v 14.99931 h -2.29498 v -13.442 l -0.082,-1.8032 q -0.20491,-1.39337 -1.14749,-2.21301 -0.90159,-0.81963 -2.29497,-0.81963 -2.9097,0 -6.18824,3.15559 v 15.12225 z"
         id="path505" /><path
         d="m 252.12292,608.07404 v -19.50729 h 2.29497 v 2.33595 q 3.31952,-3.07362 6.721,-3.07362 3.64737,0 4.83584,3.48344 1.39338,-1.59829 3.27854,-2.49988 1.92614,-0.94258 3.77031,-0.94258 1.39338,0 2.66381,0.57374 1.27044,0.57374 1.92614,1.51632 0.53277,0.77866 0.73768,1.72124 0.2049,0.90159 0.2049,2.82773 v 13.56495 h -2.29497 v -13.52397 l -0.082,-1.76221 q -0.16393,-1.35239 -1.14749,-2.13105 -0.94258,-0.77865 -2.49989,-0.77865 -3.3605,0 -6.10627,3.19657 v 14.99931 h -2.29497 v -13.442 l -0.082,-1.8032 q -0.20491,-1.39337 -1.14749,-2.21301 -0.90159,-0.81963 -2.29497,-0.81963 -2.9097,0 -6.18824,3.15559 v 15.12225 z"
         id="path507" /><path
         d="m 298.96501,605.98397 q -2.66381,2.62283 -5.86038,2.62283 -3.19657,0 -4.75388,-2.13105 -0.61472,-0.77865 -0.86061,-1.84418 -0.24589,-1.06552 -0.24589,-3.03264 v -13.03218 h 2.29497 v 13.03218 l 0.082,1.84417 q 0.16392,1.47534 1.22945,2.37694 1.06552,0.9016 2.70479,0.9016 1.39338,0 2.78675,-0.73767 1.43436,-0.73767 2.62283,-2.09007 v -15.32715 h 2.254 v 19.50729 h -2.254 z"
         id="path509" /><path
         d="m 308.96458,608.07404 v -19.50729 h 2.29497 v 2.4589 q 3.07363,-3.11461 6.51609,-3.11461 2.78676,0 4.38504,1.68025 0.77866,0.81963 1.06553,1.88516 0.28687,1.02454 0.28687,2.95068 v 13.64691 h -2.29498 v -13.442 q 0,-4.79486 -3.85227,-4.79486 -2.95069,0 -6.10628,3.27853 v 14.95833 z"
         id="path511" /><path
         d="m 331.25864,608.07404 v -19.50729 h 2.29498 v 19.50729 z m -0.082,-22.04816 v -3.85228 h 2.49988 v 3.85228 z"
         id="path513" /></g><g
       aria-label="t"
       transform="matrix(2.3776164,0,0,2.342075,-307.18263,-718.72785)"
       id="text300"
       style="font-size:40.9817px;font-family:Saxony-Serial-Light;-inkscape-font-specification:Saxony-Serial-Light;display:inline;stroke-width:0.878179"><path
         d="m 340.01459,590.09167 v -1.88515 h 3.23756 v -6.18824 h 2.29497 v 6.18824 h 5.73744 v 1.88515 h -5.73744 v 12.3355 l 0.041,1.43436 q 0.12295,1.18847 0.81964,1.88515 0.69669,0.69669 1.76221,0.69669 1.27043,0 2.74577,-0.77865 l 0.77866,1.39338 q -1.92614,1.18847 -3.89327,1.18847 -2.66381,0 -3.89326,-1.92614 -0.40981,-0.65571 -0.53276,-1.27043 -0.12294,-0.61473 -0.12294,-2.09007 v -12.86826 z"
         id="path359"
         style="display:inline" /></g><g
       aria-label="y"
       transform="matrix(2.2081521,0,0,2.5218169,-304.26257,-718.72785)"
       id="text304"
       style="font-size:38.0607px;font-family:Saxony-Serial-Light;-inkscape-font-specification:Saxony-Serial-Light;word-spacing:1.49298px;display:inline;stroke-width:0.815587"><path
         d="m 380.92664,546.26648 2.12055,10e-4 5.86286,15.83913 0.26643,0.98958 0.26642,-0.98958 6.08971,-15.87131 2.22226,0.0186 -8.65451,21.67604 c -0.15588,0.38559 -0.50616,1.21061 -0.50616,1.21061 -2.07559,-0.002 -0.022,-0.0115 -2.05865,-0.014 0,0 0.80133,-1.88169 1.08044,-2.56678 0.27911,-0.65972 0.41867,-1.11645 0.41867,-1.37019 l -0.0761,-0.30448 z"
         id="path409"
         sodipodi:nodetypes="cccccccccccccc" /></g><g
       aria-label=" church"
       transform="matrix(2.3776164,0,0,2.342075,-307.18263,-718.72785)"
       id="text444"
       style="font-size:40.9817px;font-family:Saxony-Serial-Light;-inkscape-font-specification:Saxony-Serial-Light;word-spacing:1.60756px;display:inline;stroke-width:0.878179"><path
         d="m 403.8603,590.32836 -1.22945,1.39338 q -1.18847,-1.02454 -2.29497,-1.43436 -1.06553,-0.40982 -2.45891,-0.40982 -3.11461,0 -5.24565,2.54087 -2.09007,2.49988 -2.09007,6.22922 0,3.48344 1.88516,5.8194 1.92614,2.29497 4.87682,2.29497 2.95068,0 5.57351,-2.33595 l 1.10651,1.39338 q -1.68025,1.5573 -3.19658,2.21301 -1.47534,0.6557 -3.52442,0.6557 -3.93424,0 -6.43413,-2.78675 -2.49988,-2.78676 -2.49988,-7.21278 0,-4.58995 2.70479,-7.6226 2.70479,-3.03264 6.80296,-3.03264 1.84418,0 3.15559,0.53276 1.3524,0.49178 2.86872,1.76221 z"
         id="path719" /><path
         d="m 409.55676,608.23737 v -26.14031 h 2.27946 l 0.0155,8.80505 c 2.07641,-1.91248 4.16647,-2.86872 6.2702,-2.86872 0.87428,0 1.72124,0.16393 2.54087,0.49178 0.84695,0.32785 1.51632,0.77865 2.0081,1.35239 0.51911,0.57375 0.87428,1.20213 1.06553,1.88516 0.19125,0.68303 0.28687,1.69391 0.28687,3.03265 v 13.442 h -2.29498 v -13.36004 c 0,-0.81963 -0.041,-1.46168 -0.12294,-1.92614 -0.16393,-0.90159 -0.60107,-1.6256 -1.31142,-2.17203 -0.71035,-0.54642 -1.57096,-0.81963 -2.58184,-0.81963 -1.9398,0 -3.89326,1.01088 -5.86039,3.03264 v 15.2452 z"
         id="path721"
         sodipodi:nodetypes="ccccsccssccscssccc" /><path
         d="m 443.4896,606.1473 q -2.66381,2.62283 -5.86038,2.62283 -3.19658,0 -4.75388,-2.13105 -0.61473,-0.77865 -0.86062,-1.84418 -0.24589,-1.06552 -0.24589,-3.03264 v -13.03218 h 2.29498 v 13.03218 l 0.082,1.84417 q 0.16393,1.47534 1.22945,2.37694 1.06553,0.9016 2.70479,0.9016 1.39338,0 2.78676,-0.73767 1.43436,-0.73767 2.62283,-2.09007 v -15.32715 h 2.25399 v 19.50729 h -2.25399 z"
         id="path723" /><path
         d="m 453.48917,608.23737 v -19.50729 h 2.29497 v 3.11461 q 2.13105,-3.8113 6.80296,-3.8113 v 2.0081 q -1.1065,0 -1.96712,0.24589 -0.81963,0.20491 -1.96712,0.81963 -1.10651,0.57375 -1.76221,1.27044 -0.61473,0.69669 -1.10651,1.84417 v 14.01575 z"
         id="path725" /><path
         d="m 479.34863,590.32836 -1.22945,1.39338 q -1.18847,-1.02454 -2.29497,-1.43436 -1.06553,-0.40982 -2.45891,-0.40982 -3.1146,0 -5.24565,2.54087 -2.09007,2.49988 -2.09007,6.22922 0,3.48344 1.88516,5.8194 1.92614,2.29497 4.87682,2.29497 2.95068,0 5.57351,-2.33595 l 1.10651,1.39338 q -1.68025,1.5573 -3.19657,2.21301 -1.47535,0.6557 -3.52443,0.6557 -3.93424,0 -6.43413,-2.78675 -2.49988,-2.78676 -2.49988,-7.21278 0,-4.58995 2.70479,-7.6226 2.70479,-3.03264 6.80296,-3.03264 1.84418,0 3.15559,0.53276 1.3524,0.49178 2.86872,1.76221 z"
         id="path727" /><path
         d="m 485.04509,608.23737 v -26.14653 h 2.284 l 0.011,8.81127 c 2.07641,-1.91248 4.16647,-2.86872 6.2702,-2.86872 0.87428,0 1.72124,0.16393 2.54087,0.49178 0.84695,0.32785 1.51632,0.77865 2.0081,1.35239 0.51911,0.57375 0.87428,1.20213 1.06553,1.88516 0.19125,0.68303 0.28687,1.69391 0.28687,3.03265 v 13.442 h -2.29498 v -13.36004 c 0,-0.81963 -0.041,-1.46168 -0.12294,-1.92614 -0.16393,-0.90159 -0.60106,-1.6256 -1.31141,-2.17203 -0.71035,-0.54642 -1.57097,-0.81963 -2.58185,-0.81963 -1.9398,0 -3.89326,1.01088 -5.86039,3.03264 v 15.2452 z"
         id="path729"
         sodipodi:nodetypes="ccccsccssccscssccc" /></g><rect
       style="display:inline;fill:#ffde59;stroke-width:2.35977"
       id="rect459"
       width="15.928506"
       height="1.769834"
       x="841.92822"
       y="642.75165" /><rect
       style="display:inline;fill:#ffde59;stroke-width:2.35977"
       id="rect465"
       width="18.288286"
       height="4.7195573"
       x="470.85306"
       y="650.4212" /></g></svg>
