<?xml version="1.0" encoding="UTF-8" standalone="no"?>
<!-- Created with Inkscape (http://www.inkscape.org/) -->

<svg
   version="1.1"
   id="svg10"
   width="161.73756"
   height="161.53223"
   viewBox="0 0 161.73757 161.53222"
   sodipodi:docname="ccc-svg.svg"
   xml:space="preserve"
   inkscape:version="1.3.2 (091e20e, 2023-11-25, custom)"
   inkscape:export-filename="logoredraw.svg"
   inkscape:export-xdpi="350"
   inkscape:export-ydpi="350"
   xmlns:inkscape="http://www.inkscape.org/namespaces/inkscape"
   xmlns:sodipodi="http://sodipodi.sourceforge.net/DTD/sodipodi-0.dtd"
   xmlns="http://www.w3.org/2000/svg"
   xmlns:svg="http://www.w3.org/2000/svg"><defs
     id="defs14" /><sodipodi:namedview
     id="namedview12"
     pagecolor="#ffffff"
     bordercolor="#000000"
     borderopacity="0.25"
     inkscape:showpageshadow="2"
     inkscape:pageopacity="0.0"
     inkscape:pagecheckerboard="0"
     inkscape:deskcolor="#d1d1d1"
     showgrid="false"
     inkscape:zoom="2.8284271"
     inkscape:cx="116.49584"
     inkscape:cy="88.565124"
     inkscape:window-width="1366"
     inkscape:window-height="705"
     inkscape:window-x="-8"
     inkscape:window-y="-8"
     inkscape:window-maximized="1"
     inkscape:current-layer="layer1" /><g
     inkscape:groupmode="layer"
     id="layer5"
     inkscape:label="bck 1"
     style="display:inline"
     transform="translate(10.863194,7.6499922)"><rect
       style="opacity:1;fill:#000000;stroke:#000000;stroke-width:5.78264;stroke-opacity:0"
       id="rect1"
       width="155.95491"
       height="155.74959"
       x="-7.9718738"
       y="-4.7586722"
       inkscape:export-filename="cccfavicon.png"
       inkscape:export-xdpi="350.64212"
       inkscape:export-ydpi="350.64212" /></g><g
     inkscape:groupmode="layer"
     id="layer2"
     inkscape:label="bck"
     style="display:inline;fill:#000000"
     transform="translate(-241.38694,-481.74441)"><rect
       style="display:inline;fill:none;stroke-width:0.623527"
       id="rect636"
       width="537.07019"
       height="278.31073"
       x="99.556343"
       y="424.87927" /><path
       style="opacity:0;fill:#000000;fill-opacity:0;stroke:#000000;stroke-width:7.84423;stroke-opacity:0"
       d="m 270.77587,489.61621 c 17.2893,0.0559 34.48545,1.88269 51.77401,1.88269 2.19647,0 4.45853,0.53273 6.58942,0 0.68069,-0.17016 1.19468,-0.80374 1.88269,-0.94134 3.31885,-0.66377 7.03596,0.66377 10.35481,0 0.68801,-0.13761 1.19468,-0.80374 1.88269,-0.94135 2.8944,-0.57888 6.45191,0 9.41345,0 8.47211,0 16.94423,0 25.41634,0"
       id="path1"
       inkscape:export-filename="..\..\..\Hugo\CCC\assets\img\ccc-svg.svg"
       inkscape:export-xdpi="350"
       inkscape:export-ydpi="350" /></g><g
     inkscape:groupmode="layer"
     id="layer4"
     inkscape:label="circles"
     style="fill:none;stroke:#ffffff;stroke-opacity:1"
     transform="translate(-241.38694,-481.74441)"><path
       id="path643"
       style="opacity:1;fill:none;fill-rule:evenodd;stroke:#ffde59;stroke-width:4.60984"
       d="m 375.13865,604.56216 a 65.001174,65.001174 0 0 1 -49.58243,22.96861 65.001174,65.001174 0 0 1 -65.00117,-65.00117 65.001174,65.001174 0 0 1 65.00117,-65.00118 65.001174,65.001174 0 0 1 49.30845,22.64754"
       inkscape:export-filename="..\..\..\Hugo\CCC\assets\img\ccc-svg.svg"
       inkscape:export-xdpi="350"
       inkscape:export-ydpi="350" /><path
       id="path646"
       style="opacity:1;fill:none;fill-opacity:0.0588235;fill-rule:evenodd;stroke-width:3.78597;stroke-dasharray:none"
       d="m 368.80147,598.59461 a 56.876019,56.876019 0 0 1 -43.74014,20.52108 56.876019,56.876019 0 0 1 -56.87602,-56.87602 56.876019,56.876019 0 0 1 56.87602,-56.87602 56.876019,56.876019 0 0 1 44.07913,20.93285" /><path
       id="path649"
       style="display:inline;opacity:1;fill:none;fill-opacity:0.0588235;fill-rule:evenodd;stroke-width:3.72807;stroke-dasharray:none"
       d="m 363.54974,593.65143 a 49.679541,49.679541 0 0 1 -38.48841,18.26779 49.679541,49.679541 0 0 1 -49.67955,-49.67955 49.679541,49.679541 0 0 1 49.67955,-49.67953 49.679541,49.679541 0 0 1 39.11274,19.04866" /></g></svg>
